<?xml version="1.0" standalone="no"?>
<!DOCTYPE svg PUBLIC "-//W3C//DTD SVG 20010904//EN"
 "http://www.w3.org/TR/2001/REC-SVG-20010904/DTD/svg10.dtd">
<svg version="1.0" xmlns="http://www.w3.org/2000/svg"
 width="225.000000pt" height="225.000000pt" viewBox="0 0 225.000000 225.000000"
 preserveAspectRatio="xMidYMid meet">
<metadata>
Created by potrace 1.11, written by Peter Selinger 2001-2013
</metadata>
<g transform="translate(0.000000,225.000000) scale(0.100000,-0.100000)"
fill="#000000" stroke="none">
<path d="M290 1808 c-72 -37 -80 -64 -80 -256 0 -181 7 -211 59 -255 32 -27
33 -27 197 -27 l164 0 0 -40 0 -40 -190 0 c-177 0 -191 -1 -210 -20 -26 -26
-26 -64 0 -90 19 -19 33 -20 230 -20 234 0 255 4 290 63 19 30 20 52 20 318 0
281 0 287 -23 320 -40 60 -71 69 -252 69 -147 0 -165 -2 -205 -22z m340 -263
l0 -146 -137 3 -138 3 -3 143 -3 142 141 0 140 0 0 -145z"/>
<path d="M925 1810 c-70 -35 -75 -52 -75 -268 0 -177 1 -191 21 -216 40 -51
63 -56 254 -56 191 0 214 5 254 56 20 25 21 39 21 220 l0 192 -27 33 c-44 52
-74 59 -250 59 -138 0 -163 -3 -198 -20z m343 -262 l-3 -143 -140 0 -140 0 -3
143 -3 142 146 0 146 0 -3 -142z"/>
<path d="M1565 1816 c-16 -7 -41 -26 -55 -41 -25 -26 -25 -30 -28 -215 -4
-211 2 -234 61 -270 28 -18 51 -20 195 -20 l162 0 0 -40 0 -40 -193 0 c-175 0
-196 -2 -210 -18 -22 -25 -21 -75 1 -95 16 -15 47 -17 232 -17 322 0 313 -13
308 401 -3 265 -4 275 -25 305 -38 53 -82 64 -261 64 -108 -1 -166 -5 -187
-14z m333 -268 l-3 -143 -137 -3 -138 -3 0 146 0 145 140 0 141 0 -3 -142z"/>
<path d="M1555 980 c-142 -5 -165 -13 -195 -63 -18 -29 -20 -52 -20 -244 0
-179 2 -214 16 -227 38 -38 96 -27 115 21 5 15 9 105 9 202 l-2 176 69 0 68 0
5 -194 5 -194 27 -20 c23 -17 33 -19 55 -11 47 16 53 43 53 242 l0 183 68 -3
67 -3 3 -190 c2 -178 4 -191 24 -212 29 -31 71 -30 97 3 20 25 21 39 21 280
l0 253 -177 3 c-98 2 -236 1 -308 -2z"/>
<path d="M269 953 c-52 -44 -59 -74 -59 -254 0 -180 8 -212 64 -252 28 -20 45
-22 166 -25 126 -4 137 -2 163 18 33 26 36 71 7 100 -18 18 -33 20 -140 20
l-121 0 3 143 3 142 120 3 c134 3 155 12 155 67 0 58 -19 65 -183 65 -144 0
-146 0 -178 -27z"/>
<path d="M784 970 c-35 -14 -72 -67 -79 -114 -4 -24 -5 -108 -3 -187 5 -231
26 -249 284 -249 173 0 203 7 247 59 l27 33 0 186 c0 168 -2 190 -20 219 -34
57 -59 63 -257 62 -98 0 -187 -4 -199 -9z m344 -267 l3 -143 -146 0 -145 0 0
138 c0 76 3 142 7 146 4 3 68 5 142 4 l136 -3 3 -142z"/>
</g>
</svg>
